<svg xmlns="http://www.w3.org/2000/svg" width="512" height="512" viewBox="0 0 486.501 345.4">
  <g id="money-svgrepo-com" transform="translate(0 -70.55)">
    <g id="Group_1" data-name="Group 1">
      <path id="Path_1" data-name="Path 1" d="M301.1,115.45a71.2,71.2,0,1,0,71.2,71.2A71.229,71.229,0,0,0,301.1,115.45Zm20.5,99.4a22.946,22.946,0,0,1-11.9,7.6c-2.1.6-3,1.6-2.9,3.8.1,2.1,0,4.2,0,6.3a2.561,2.561,0,0,1-2.8,2.9c-2.3.1-4.5.1-6.8,0-2,0-2.9-1.2-2.9-3.1v-4.6c0-3.4-.1-3.5-3.4-4a42.081,42.081,0,0,1-12.1-3.5c-3-1.5-3.3-2.2-2.4-5.4.6-2.3,1.3-4.7,2-7,.8-2.7,1.6-3,4-1.7a39.2,39.2,0,0,0,13.4,4,15.684,15.684,0,0,0,8.8-1.2c5.2-2.3,6.1-8.4,1.6-12a19.211,19.211,0,0,0-5-2.9c-4.6-2-9.4-3.6-13.7-6.2-7-4.2-11.5-10-11-18.6.6-9.7,6.1-15.7,14.9-18.9,3.7-1.3,3.7-1.3,3.7-5.1v-3.9c.1-2.9.6-3.4,3.4-3.5h2.7c6.1,0,6.1,0,6.1,6.1,0,4.3,0,4.3,4.3,5a38.527,38.527,0,0,1,9.5,2.8,2.756,2.756,0,0,1,1.8,3.7c-.8,2.6-1.5,5.3-2.3,7.9-.8,2.5-1.6,2.8-4,1.7a30.336,30.336,0,0,0-15.1-3,13.545,13.545,0,0,0-4,.8c-4.6,2-5.3,7-1.4,10.1a27.962,27.962,0,0,0,6.5,3.7,127.458,127.458,0,0,1,11.9,5.4C326.9,189.05,330.2,204.35,321.6,214.85Z" fill="#1976d2"/>
      <circle id="Ellipse_1" data-name="Ellipse 1" cx="19.7" cy="19.7" r="19.7" transform="translate(177.8 170.65)" fill="#1976d2"/>
      <circle id="Ellipse_2" data-name="Ellipse 2" cx="19.7" cy="19.7" r="19.7" transform="translate(385.1 170.65)" fill="#1976d2"/>
      <path id="Path_2" data-name="Path 2" d="M454.1,70.55H143.8a32.563,32.563,0,0,0-32.5,32.5v167.3a32.563,32.563,0,0,0,32.5,32.5H454a32.563,32.563,0,0,0,32.5-32.5V103.05A32.414,32.414,0,0,0,454.1,70.55Zm4.7,164.7a31,31,0,0,0-8.1-1,32.862,32.862,0,0,0-32.9,32.9,34.355,34.355,0,0,0,1,8H177.2a30.78,30.78,0,0,0,.6-6.1,32.862,32.862,0,0,0-32.9-32.9,36.794,36.794,0,0,0-5.8.5v-99.9a36.793,36.793,0,0,0,5.8.5,32.862,32.862,0,0,0,32.9-32.9,30.779,30.779,0,0,0-.6-6.1H418a27.276,27.276,0,0,0-.3,4.1,32.862,32.862,0,0,0,32.9,32.9,35.924,35.924,0,0,0,8.1-1v101Z" fill="#1976d2"/>
      <path id="Path_3" data-name="Path 3" d="M393.5,331.55H98.4a14.873,14.873,0,0,1-14.9-14.9V127.35a32.255,32.255,0,0,0-27.7,32v167.7a32.286,32.286,0,0,0,32.3,32.3H398.7a32.419,32.419,0,0,0,32-27.8H393.5Z" fill="#1976d2"/>
      <path id="Path_4" data-name="Path 4" d="M337.7,388.15H42.6a14.873,14.873,0,0,1-14.9-14.9V183.95a32.255,32.255,0,0,0-27.7,32v167.7a32.286,32.286,0,0,0,32.3,32.3H342.9a32.419,32.419,0,0,0,32-27.8H337.7Z" fill="#1976d2"/>
    </g>
  </g>
</svg>
