<svg xmlns="http://www.w3.org/2000/svg" width="512" height="512" viewBox="0 0 512 512">
  <g id="technician-with-helmet-svgrepo-com" transform="translate(-17.592)">
    <path id="Path_1" data-name="Path 1" d="M527.7,431.982,514.9,399.8c-22.369-56.186-80.164-95.763-147.8-103.326-25.09,23.559-57.749,37.939-93.522,37.939s-68.415-14.38-93.505-37.939c-67.624,7.563-125.42,47.14-147.788,103.326l-12.8,32.184c-3.686,9.255-1.92,19.458,4.759,27.409s17.426,12.656,28.884,12.656H494.058c11.459,0,22.214-4.712,28.884-12.656S531.388,441.237,527.7,431.982Z" transform="translate(0 39.953)" fill="#1976d2"/>
    <path id="Path_2" data-name="Path 2" d="M236.013,310.558c53.266,0,96.507-56.559,97.967-127.023H138.068C139.528,254,182.769,310.558,236.013,310.558Z" transform="translate(37.569 21.253)" fill="#1976d2"/>
    <path id="Path_3" data-name="Path 3" d="M119.9,152.3a37.359,37.359,0,0,0,13.458,2.532H413.837a37.31,37.31,0,0,0,13.449-2.532c10.113-3.882,17.131-11.927,17.131-21.322,0-13.176-13.687-23.853-30.578-23.853h-5.614c-.874-3.456-1.91-6.871-3.015-10.273-8.342-25.631-23.4-49.476-44.583-67.32V46.852c0,8.781-9.129,15.9-20.385,15.9s-20.385-7.121-20.385-15.9V6.079A135.123,135.123,0,0,0,293.97,0V64.191c0,8.781-9.126,15.9-20.385,15.9S253.2,72.972,253.2,64.191V0a135.536,135.536,0,0,0-25.87,6.071V46.852c0,8.781-9.129,15.9-20.385,15.9s-20.385-7.121-20.385-15.9V29.529C165.387,47.365,150.335,71.194,142,96.811c-1.115,3.416-2.151,6.84-3.027,10.311h-5.614c-16.892,0-30.578,10.677-30.578,23.853C102.777,140.362,109.794,148.407,119.9,152.3Z" fill="#1976d2"/>
  </g>
</svg>
